<svg width="132" height="39" viewBox="0 0 132 39" fill="none" xmlns="http://www.w3.org/2000/svg">
<g id="Frame" clip-path="url(#clip0_24_869)">
<g id="Group">
<path id="Vector" d="M15.7111 38.5944V25.8781C15.7111 21.7422 6.97517 15.5382 6.97517 15.5382C6.97517 15.5382 5.01267 18.2803 9.54323 22.4619C12.7841 25.4554 11.8534 28.643 11.8534 28.643C11.8534 28.643 8.15266 24.8727 4.66503 21.228C1.1774 17.5834 5.84253 11.3223 0.0223381 5.39258C0.0223381 5.39258 -0.213161 19.7199 0.740049 22.1535C1.89512 25.0898 15.7111 38.5944 15.7111 38.5944Z" fill="white"/>
<path id="Vector_2" d="M18.3911 38.5944C18.3911 38.5944 18.3911 30.0026 18.3911 25.8781C18.3911 21.7536 27.127 15.5382 27.127 15.5382C27.127 15.5382 29.0895 18.2803 24.5589 22.4619C21.318 25.4554 22.2488 28.643 22.2488 28.643C22.2488 28.643 25.9495 24.8727 29.4371 21.228C32.9248 17.5834 28.2484 11.3223 34.0686 5.39258C34.0686 5.39258 34.3041 19.7199 33.3509 22.1535C32.1958 25.0898 18.3799 38.5944 18.3799 38.5944H18.3911Z" fill="white"/>
<path id="Vector_3" d="M17.0456 16.6236C18.1783 16.6236 19.3109 16.1894 20.1744 15.3097L34.1025 1.13092C32.3867 -0.617145 29.6168 -0.228685 27.901 1.51938L17.0569 12.5676L6.20148 1.51938C4.4857 -0.228685 1.71578 -0.617145 0 1.13092L13.9281 15.3211C14.7916 16.2009 15.9242 16.635 17.0569 16.635L17.0456 16.6236Z" fill="white"/>
</g>
<g id="Group_2">
<path id="Vector_4" d="M60.6465 24.1769C60.6465 25.2623 60.3773 26.1877 59.8278 26.9646C59.2896 27.7416 58.5718 28.3357 57.6747 28.7584C56.7888 29.1812 55.7907 29.3982 54.6805 29.3982H45.4624V9.16406H55.4094C56.3178 9.16406 57.1028 9.41542 57.7644 9.91813C58.4261 10.4208 58.9307 11.0721 59.2896 11.849C59.6484 12.6373 59.8166 13.46 59.8166 14.3169C59.8166 15.288 59.5811 16.202 59.0989 17.0818C58.6167 17.9501 57.9326 18.6013 57.0467 19.0127C58.1569 19.3554 59.0316 19.9838 59.6708 20.8864C60.3101 21.8004 60.6353 22.8858 60.6353 24.1655L60.6465 24.1769ZM48.5463 11.9061V17.9158H54.1198C54.6244 17.9158 55.0842 17.7787 55.4767 17.5159C55.8804 17.2532 56.1944 16.899 56.4299 16.4534C56.6654 16.0078 56.7888 15.5051 56.7888 14.9338C56.7888 14.3626 56.6879 13.8256 56.4748 13.38C56.2617 12.9344 55.9701 12.5802 55.5889 12.3174C55.2076 12.0547 54.7702 11.9176 54.288 11.9176H48.5575L48.5463 11.9061ZM57.5401 23.5828C57.5401 23.0115 57.4168 22.4859 57.1813 22.0175C56.9458 21.5376 56.6318 21.1606 56.2393 20.875C55.8468 20.5893 55.387 20.4522 54.8711 20.4522H48.5351V26.6562H54.6805C55.2188 26.6562 55.7122 26.5076 56.1384 26.2106C56.5645 25.9135 56.9009 25.5365 57.1589 25.0909C57.4168 24.6339 57.5401 24.1312 57.5401 23.5828Z" fill="white"/>
<path id="Vector_5" d="M62.9902 9.16348H65.9844V25.0103C65.9844 25.7301 66.0966 26.1986 66.3097 26.4156C66.5227 26.6327 66.8031 26.7356 67.1283 26.7356C67.4759 26.7356 67.8124 26.6899 68.1488 26.5985C68.4852 26.5071 68.7656 26.4271 68.9786 26.3471L69.416 28.7236C68.9786 28.9064 68.4628 29.0663 67.8684 29.192C67.2741 29.3177 66.7358 29.3862 66.2648 29.3862C65.2331 29.3862 64.4257 29.0892 63.8537 28.5065C63.2818 27.9238 63.0015 27.1126 63.0015 26.0729V9.14062L62.9902 9.16348Z" fill="white"/>
<path id="Vector_6" d="M77.0417 29.3871C75.9202 29.3871 74.911 29.1929 74.025 28.793C73.1391 28.4046 72.3765 27.8562 71.7261 27.1592C71.0869 26.4623 70.5935 25.6739 70.2458 24.7828C69.8982 23.8916 69.73 22.9547 69.73 21.9721C69.73 20.9896 69.8982 19.9956 70.2458 19.1044C70.5935 18.2132 71.0869 17.4249 71.7261 16.7279C72.3653 16.031 73.1391 15.494 74.0362 15.0941C74.9334 14.6942 75.9315 14.5 77.0417 14.5C78.1519 14.5 79.1612 14.6942 80.0471 15.0941C80.9218 15.4826 81.6956 16.031 82.346 16.7279C82.9964 17.4249 83.5011 18.2132 83.8375 19.1044C84.1851 19.9956 84.3533 20.9439 84.3533 21.9721C84.3533 23.0004 84.1851 23.903 83.8375 24.7828C83.4899 25.6739 82.9964 26.4623 82.3572 27.1592C81.718 27.8562 80.9442 28.3931 80.0471 28.793C79.1499 29.1815 78.1519 29.3871 77.0417 29.3871ZM72.8027 21.9493C72.8027 22.8747 72.9933 23.7088 73.3746 24.4286C73.7559 25.1598 74.2605 25.731 74.8997 26.1538C75.539 26.5765 76.2455 26.7822 77.0192 26.7822C77.793 26.7822 78.5556 26.5765 79.1948 26.1538C79.834 25.731 80.3387 25.1484 80.7199 24.4057C81.1012 23.6631 81.2919 22.8405 81.2919 21.9493C81.2919 21.0581 81.1012 20.2126 80.7199 19.4814C80.3387 18.7388 79.8228 18.1675 79.1836 17.7448C78.5444 17.322 77.8267 17.1164 77.0529 17.1164C76.2791 17.1164 75.539 17.3335 74.911 17.7676C74.2718 18.2018 73.7671 18.7845 73.3858 19.5157C73.0045 20.2469 72.8139 21.0581 72.8139 21.9493H72.8027Z" fill="white"/>
<path id="Vector_7" d="M92.9659 29.3858C91.8557 29.3858 90.8576 29.1915 89.9605 28.7917C89.0633 28.4032 88.2896 27.8548 87.6391 27.1464C86.9887 26.4381 86.4841 25.6383 86.1252 24.7471C85.7664 23.8559 85.5981 22.9076 85.5981 21.9251C85.5981 20.5769 85.9009 19.3315 86.4953 18.2118C87.0896 17.0922 87.9531 16.1896 89.0633 15.5269C90.1736 14.8642 91.4744 14.5215 92.9659 14.5215C94.4574 14.5215 95.6797 14.8528 96.7563 15.5041C97.8329 16.1553 98.6403 17.035 99.1674 18.1204L96.2292 19.0345C95.904 18.4404 95.4555 17.9833 94.8723 17.6406C94.2892 17.2978 93.6388 17.1264 92.9098 17.1264C92.1136 17.1264 91.3959 17.3321 90.7455 17.7434C90.1063 18.1547 89.5904 18.7146 89.2203 19.4344C88.8503 20.1541 88.6596 20.9882 88.6596 21.9365C88.6596 22.8848 88.8503 23.696 89.2316 24.4158C89.6128 25.147 90.1287 25.7183 90.7791 26.1524C91.4295 26.5752 92.1473 26.7922 92.9323 26.7922C93.4257 26.7922 93.8967 26.7008 94.3452 26.5295C94.7938 26.3581 95.1975 26.1067 95.5564 25.7982C95.9152 25.4898 96.162 25.147 96.3077 24.8042L99.2122 25.7183C98.8982 26.4152 98.4497 27.0436 97.8553 27.6034C97.261 28.1518 96.5432 28.5974 95.7022 28.9173C94.8723 29.2372 93.9528 29.3972 92.9547 29.3972L92.9659 29.3858Z" fill="white"/>
<path id="Vector_8" d="M111.133 29.3868L106.569 22.783L104.236 25.0109V29.3868H101.242V9.16406H104.236V21.9489L110.819 15.0138H114.026L108.531 21.0464L114.352 29.3868H111.144H111.133Z" fill="white"/>
<path id="Vector_9" d="M120.642 29.3855C119.443 29.3855 118.31 29.1798 117.245 28.7799C116.179 28.3686 115.26 27.7745 114.497 26.9747L115.585 24.9525C116.415 25.6723 117.245 26.1978 118.074 26.5406C118.904 26.8833 119.723 27.0547 120.53 27.0547C121.338 27.0547 122.067 26.8948 122.583 26.5749C123.098 26.255 123.356 25.7979 123.356 25.181C123.356 24.724 123.211 24.3812 122.93 24.1641C122.65 23.947 122.246 23.7528 121.73 23.5929C121.214 23.4329 120.598 23.2501 119.891 23.0444C118.893 22.736 118.052 22.4046 117.345 22.0733C116.65 21.7305 116.123 21.3192 115.787 20.8279C115.439 20.3367 115.271 19.7083 115.271 18.9313C115.271 18.0173 115.506 17.229 115.977 16.5663C116.448 15.9036 117.11 15.4009 117.951 15.0468C118.792 14.6926 119.768 14.5098 120.878 14.5098C121.91 14.5098 122.863 14.6697 123.749 14.9896C124.624 15.3095 125.397 15.8122 126.07 16.4978L124.792 18.4972C124.175 17.9259 123.536 17.5032 122.863 17.229C122.19 16.9548 121.472 16.8177 120.721 16.8177C120.306 16.8177 119.891 16.8634 119.487 16.9662C119.084 17.069 118.736 17.2518 118.467 17.5146C118.198 17.7774 118.063 18.1544 118.063 18.6229C118.063 19.0228 118.175 19.3427 118.4 19.5712C118.624 19.7997 118.96 19.9939 119.386 20.1653C119.824 20.3252 120.351 20.508 120.99 20.7137C122.1 21.0222 123.042 21.3421 123.816 21.6734C124.59 22.0047 125.195 22.4161 125.622 22.9188C126.048 23.4215 126.261 24.107 126.261 24.9867C126.261 26.3578 125.745 27.4318 124.724 28.2201C123.704 29.0084 122.336 29.3969 120.631 29.3969L120.642 29.3855Z" fill="white"/>
<path id="Vector_10" d="M128.448 12.5117V9.16406H131.442V12.5117H128.448ZM128.448 29.3754V14.4997H131.442V29.3754H128.448Z" fill="white"/>
</g>
</g>
<defs>
<clipPath id="clip0_24_869">
<rect width="131.431" height="38.5946" fill="white"/>
</clipPath>
</defs>
</svg>
